<svg xmlns="http://www.w3.org/2000/svg" width="25.815" height="24.322" viewBox="0 0 25.815 24.322">
  <g id="Liked_Songs" data-name="Liked Songs" transform="translate(-1317.903 -173.839)">
    <g id="heart-svgrepo-com" transform="translate(1320.903 161.626)">
      <g id="Group_9180" data-name="Group 9180" transform="translate(0 15.213)">
        <path id="Path_12" data-name="Path 12" d="M36.925,39.213a5.039,5.039,0,0,0-3.746,1.749.589.589,0,0,1-.449.208h0a.589.589,0,0,1-.449-.208,5.038,5.038,0,0,0-3.746-1.749A4.486,4.486,0,0,0,24,43.748c0,3.21,2.824,5.864,7.814,10.28l.025.024.891.887.89-.887.025-.024c4.991-4.415,7.814-7.07,7.814-10.28A4.487,4.487,0,0,0,36.925,39.213Zm-8.04,2.08a2.785,2.785,0,0,0-2.815,2.815.589.589,0,0,1-1.177,0,3.95,3.95,0,0,1,3.992-3.993.589.589,0,1,1,0,1.177Z" transform="translate(-22.823 -38.036)" fill="none"/>
        <path id="Path_13" data-name="Path 13" d="M14.1,15.213a6.162,6.162,0,0,0-4.2,1.69,6.162,6.162,0,0,0-4.2-1.69A5.651,5.651,0,0,0,0,20.925a8.538,8.538,0,0,0,2.323,5.456A54.859,54.859,0,0,0,8.2,32.076l1.294,1.288a.589.589,0,0,0,.831,0l1.293-1.288a54.818,54.818,0,0,0,5.876-5.695,8.538,8.538,0,0,0,2.323-5.456A5.651,5.651,0,0,0,14.1,15.213Zm-3.28,15.993-.025.024-.89.887-.891-.887-.025-.024C4,26.789,1.177,24.135,1.177,20.925A4.486,4.486,0,0,1,5.712,16.39a5.038,5.038,0,0,1,3.746,1.749.589.589,0,0,0,.449.208h0a.589.589,0,0,0,.449-.208A5.039,5.039,0,0,1,14.1,16.39a4.486,4.486,0,0,1,4.535,4.535C18.637,24.136,15.814,26.79,10.823,31.206Z" transform="translate(0 -15.213)" fill="rgba(80,233,192,0.7)"/>
        <path id="Path_14" data-name="Path 14" d="M46.193,57.611A3.95,3.95,0,0,0,42.2,61.6a.589.589,0,1,0,1.177,0,2.785,2.785,0,0,1,2.815-2.815.589.589,0,1,0,0-1.177Z" transform="translate(-40.131 -55.531)" fill="rgba(80,233,192,0.7)"/>
      </g>
    </g>
    <g id="heart-svgrepo-com-2" data-name="heart-svgrepo-com" transform="translate(1315.903 161.626)">
      <g id="Group_9180-2" data-name="Group 9180" transform="translate(5 15.213)">
        <path id="Path_12-2" data-name="Path 12" d="M36.925,39.213a5.039,5.039,0,0,0-3.746,1.749.589.589,0,0,1-.449.208h0a.589.589,0,0,1-.449-.208,5.038,5.038,0,0,0-3.746-1.749A4.486,4.486,0,0,0,24,43.748c0,3.21,2.824,5.864,7.814,10.28l.025.024.891.887.89-.887.025-.024c4.991-4.415,7.814-7.07,7.814-10.28A4.487,4.487,0,0,0,36.925,39.213Zm-8.04,2.08a2.785,2.785,0,0,0-2.815,2.815.589.589,0,0,1-1.177,0,3.95,3.95,0,0,1,3.992-3.993.589.589,0,1,1,0,1.177Z" transform="translate(-22.823 -38.036)" fill="#50e991"/>
        <path id="Path_13-2" data-name="Path 13" d="M14.1,15.213a6.162,6.162,0,0,0-4.2,1.69,6.162,6.162,0,0,0-4.2-1.69A5.651,5.651,0,0,0,0,20.925a8.538,8.538,0,0,0,2.323,5.456A54.859,54.859,0,0,0,8.2,32.076l1.294,1.288a.589.589,0,0,0,.831,0l1.293-1.288a54.818,54.818,0,0,0,5.876-5.695,8.538,8.538,0,0,0,2.323-5.456A5.651,5.651,0,0,0,14.1,15.213Zm-3.28,15.993-.025.024-.89.887-.891-.887-.025-.024C4,26.789,1.177,24.135,1.177,20.925A4.486,4.486,0,0,1,5.712,16.39a5.038,5.038,0,0,1,3.746,1.749.589.589,0,0,0,.449.208h0a.589.589,0,0,0,.449-.208A5.039,5.039,0,0,1,14.1,16.39a4.486,4.486,0,0,1,4.535,4.535C18.637,24.136,15.814,26.79,10.823,31.206Z" transform="translate(0 -15.213)" fill="rgba(80,233,192,0.7)"/>
        <path id="Path_14-2" data-name="Path 14" d="M46.193,57.611A3.95,3.95,0,0,0,42.2,61.6a.589.589,0,1,0,1.177,0,2.785,2.785,0,0,1,2.815-2.815.589.589,0,1,0,0-1.177Z" transform="translate(-40.131 -55.531)" fill="rgba(80,233,192,0.7)"/>
      </g>
    </g>
  </g>
</svg>
