<svg xmlns="http://www.w3.org/2000/svg" width="13.111" height="12.576" viewBox="0 0 13.111 12.576">
  <g id="ph:clock-clockwise" transform="translate(-1538.005 -650)">
    <path id="Vector" d="M6.287,12.576A6.288,6.288,0,0,1,3.881.479a6.288,6.288,0,0,1,6.852,1.361L12.062,3.17V1.814a.527.527,0,0,1,.153-.37.524.524,0,0,1,.741,0,.527.527,0,0,1,.153.37v2.62a.139.139,0,0,1-.007.052v.026a.051.051,0,0,1,0,.013.05.05,0,0,0,0,.013.022.022,0,0,1,0,.008.045.045,0,0,0,0,.018.036.036,0,0,1,0,.01.028.028,0,0,1-.005.009.044.044,0,0,1,0,.017.025.025,0,0,0,0,.009.04.04,0,0,0-.007.026l-.013.019a.033.033,0,0,0-.007.013.034.034,0,0,1-.007.013l-.013.019a.029.029,0,0,1-.006.014l-.007.013-.013.052-.013.02-.078.072-.013.013-.026.02-.019.013-.026.013h-.02l-.026.013h-.02l-.026.013H9.967A.527.527,0,0,1,9.6,4.8a.524.524,0,0,1,.371-.895h1.356L9.993,2.58a5.24,5.24,0,1,0,0,7.415.523.523,0,0,1,.74.74,6.289,6.289,0,0,1-4.446,1.841ZM9,8.384a.468.468,0,0,1-.25-.072L6.024,6.74H6.01l-.026-.02-.02-.013-.019-.013-.02-.02-.013-.013a.061.061,0,0,1-.02-.019l-.006-.007-.013-.013L5.86,6.6l-.013-.019-.013-.02a.03.03,0,0,1-.01-.012.036.036,0,0,1,0-.015l-.013-.019a.023.023,0,0,0,0-.009.043.043,0,0,1,0-.018A.022.022,0,0,1,5.8,6.475a.041.041,0,0,1,0-.01l-.013-.026a.036.036,0,0,0,0-.01.028.028,0,0,0-.005-.009c0-.012,0-.019-.007-.026V6.366a.041.041,0,0,0,0-.017.022.022,0,0,1,0-.009v-3.2a.523.523,0,0,1,.524-.524.523.523,0,0,1,.524.524V5.987L9.272,7.408a.524.524,0,0,1-.262.976Z" transform="translate(1538.005 650)" fill="#e6e6e6"/>
  </g>
</svg>
