<svg xmlns="http://www.w3.org/2000/svg" width="37" height="36" viewBox="0 0 37 36">
  <g id="Liked_Songs_Btn_Default" data-name="Liked Songs Btn Default" transform="translate(-404.992 -28)">
    <g id="background" transform="translate(405 28)">
      <rect id="Shape_BG" data-name="Shape BG" width="37" height="36" rx="6" transform="translate(-0.008)" fill="#2b303e"/>
      <g id="Liked_Songs" data-name="Liked Songs" transform="translate(9.615 9.792)">
        <g id="Secondary" transform="translate(0 0)">
          <g id="Group_9180" data-name="Group 9180" transform="translate(0 0)">
            <path id="Path_12" data-name="Path 12" d="M35.581,39.213a4.515,4.515,0,0,0-3.356,1.567.528.528,0,0,1-.4.187h0a.528.528,0,0,1-.4-.187,4.514,4.514,0,0,0-3.357-1.567A4.02,4.02,0,0,0,24,43.276c0,2.876,2.53,5.254,7,9.211l.023.021.8.794.8-.794.023-.021c4.471-3.956,7-6.334,7-9.211A4.02,4.02,0,0,0,35.581,39.213Zm-7.2,1.863A2.5,2.5,0,0,0,25.855,43.6a.527.527,0,1,1-1.055,0,3.539,3.539,0,0,1,3.577-3.577.527.527,0,0,1,0,1.055Z" transform="translate(-22.945 -38.158)" fill="none"/>
            <path id="Path_13" data-name="Path 13" d="M12.635,15.213a5.521,5.521,0,0,0-3.759,1.514,5.521,5.521,0,0,0-3.759-1.514A5.063,5.063,0,0,0,0,20.331a7.65,7.65,0,0,0,2.082,4.888,49.152,49.152,0,0,0,5.264,5.1L8.5,31.475a.527.527,0,0,0,.744,0l1.159-1.154a49.116,49.116,0,0,0,5.264-5.1,7.65,7.65,0,0,0,2.081-4.888A5.063,5.063,0,0,0,12.635,15.213ZM9.7,29.542l-.023.021-.8.794-.8-.794-.023-.021c-4.471-3.957-7-6.335-7-9.211a4.019,4.019,0,0,1,4.063-4.063,4.514,4.514,0,0,1,3.357,1.567.528.528,0,0,0,.4.187h0a.528.528,0,0,0,.4-.187,4.515,4.515,0,0,1,3.356-1.567A4.02,4.02,0,0,1,16.7,20.331C16.7,23.207,14.169,25.586,9.7,29.542Z" transform="translate(0 -15.213)" fill="rgba(71,209,172,0.7)"/>
            <path id="Path_14" data-name="Path 14" d="M45.778,57.611A3.539,3.539,0,0,0,42.2,61.188a.527.527,0,1,0,1.055,0,2.5,2.5,0,0,1,2.522-2.523.527.527,0,0,0,0-1.055Z" transform="translate(-40.346 -55.748)" fill="rgba(71,209,172,0.7)"/>
          </g>
        </g>
        <g id="Primary" transform="translate(1.055 1.055)">
          <g id="Group_9180-2" data-name="Group 9180">
            <path id="Path_12-2" data-name="Path 12" d="M35.581,39.213a4.515,4.515,0,0,0-3.356,1.567.528.528,0,0,1-.4.187h0a.528.528,0,0,1-.4-.187,4.514,4.514,0,0,0-3.357-1.567A4.02,4.02,0,0,0,24,43.276c0,2.876,2.53,5.254,7,9.211l.023.021.8.794.8-.794.023-.021c4.471-3.956,7-6.334,7-9.211A4.02,4.02,0,0,0,35.581,39.213Zm-7.2,1.863A2.5,2.5,0,0,0,25.855,43.6a.527.527,0,1,1-1.055,0,3.539,3.539,0,0,1,3.577-3.577.527.527,0,0,1,0,1.055Z" transform="translate(-24 -39.213)" fill="#47d1ac"/>
          </g>
        </g>
      </g>
    </g>
  </g>
</svg>
