<svg xmlns="http://www.w3.org/2000/svg" width="37" height="36" viewBox="0 0 37 36">
  <g id="Liked_Songs_Btn_Default" data-name="Liked Songs Btn Default" transform="translate(-405 -28)">
    <g id="background" transform="translate(405 28)">
      <rect id="Shape_BG" data-name="Shape BG" width="37" height="36" rx="6" fill="rgba(80,233,192,0.7)"/>
      <g id="Liked_Songs" data-name="Liked Songs" transform="translate(9.591 9.762)">
        <g id="Secondary">
          <g id="Group_9180" data-name="Group 9180" transform="translate(0 0)">
            <path id="Path_12" data-name="Path 12" d="M35.622,39.213a4.531,4.531,0,0,0-3.368,1.572.529.529,0,0,1-.4.187h0a.529.529,0,0,1-.4-.187,4.531,4.531,0,0,0-3.369-1.572A4.034,4.034,0,0,0,24,43.291c0,2.886,2.539,5.273,7.026,9.244l.023.021.8.8.8-.8.023-.021c4.488-3.97,7.027-6.357,7.027-9.244A4.034,4.034,0,0,0,35.622,39.213Zm-7.23,1.87a2.5,2.5,0,0,0-2.531,2.532.529.529,0,1,1-1.059,0,3.552,3.552,0,0,1,3.59-3.59.529.529,0,0,1,0,1.059Z" transform="translate(-22.941 -38.154)" fill="none"/>
            <path id="Path_13" data-name="Path 13" d="M12.681,15.213a5.541,5.541,0,0,0-3.772,1.52,5.541,5.541,0,0,0-3.773-1.52A5.081,5.081,0,0,0,0,20.349a7.677,7.677,0,0,0,2.089,4.906,49.329,49.329,0,0,0,5.283,5.121l1.163,1.158a.529.529,0,0,0,.747,0l1.163-1.158a49.292,49.292,0,0,0,5.283-5.121,7.677,7.677,0,0,0,2.089-4.906A5.082,5.082,0,0,0,12.681,15.213ZM9.732,29.593l-.023.021-.8.8-.8-.8-.023-.021C3.6,25.623,1.059,23.235,1.059,20.349a4.034,4.034,0,0,1,4.077-4.078A4.531,4.531,0,0,1,8.5,17.844a.529.529,0,0,0,.4.187h0a.529.529,0,0,0,.4-.187,4.531,4.531,0,0,1,3.368-1.572,4.034,4.034,0,0,1,4.078,4.078C16.759,23.236,14.22,25.623,9.732,29.593Z" transform="translate(0 -15.213)" fill="rgba(80,233,192,0.7)"/>
            <path id="Path_14" data-name="Path 14" d="M45.791,57.611A3.552,3.552,0,0,0,42.2,61.2a.529.529,0,0,0,1.059,0,2.5,2.5,0,0,1,2.531-2.532.529.529,0,1,0,0-1.059Z" transform="translate(-40.34 -55.741)" fill="rgba(80,233,192,0.7)"/>
          </g>
        </g>
        <g id="Primary" transform="translate(1.059 1.059)">
          <g id="Group_9180-2" data-name="Group 9180">
            <path id="Path_12-2" data-name="Path 12" d="M35.622,39.213a4.531,4.531,0,0,0-3.368,1.572.529.529,0,0,1-.4.187h0a.529.529,0,0,1-.4-.187,4.531,4.531,0,0,0-3.369-1.572A4.034,4.034,0,0,0,24,43.291c0,2.886,2.539,5.273,7.026,9.244l.023.021.8.8.8-.8.023-.021c4.488-3.97,7.027-6.357,7.027-9.244A4.034,4.034,0,0,0,35.622,39.213Zm-7.23,1.87a2.5,2.5,0,0,0-2.531,2.532.529.529,0,1,1-1.059,0,3.552,3.552,0,0,1,3.59-3.59.529.529,0,0,1,0,1.059Z" transform="translate(-24 -39.213)" fill="#fff"/>
          </g>
        </g>
      </g>
    </g>
  </g>
</svg>
