<svg xmlns="http://www.w3.org/2000/svg" width="34" height="34" viewBox="0 0 34 34">
  <g id="Icon" transform="translate(0.286 -0.152)">
    <circle id="Oval" cx="17" cy="17" r="17" transform="translate(-0.286 0.152)" fill="#333948"/>
    <path id="cog-svgrepo-com" d="M811.066,802.753h-.415a.882.882,0,0,1-.831-.589,6.012,6.012,0,0,0-.262-.63.881.881,0,0,1,.169-1.008l.287-.287a1.242,1.242,0,0,0,0-1.756l-.207-.207a1.241,1.241,0,0,0-1.756,0l-.293.293a.882.882,0,0,1-1,.172,5.907,5.907,0,0,0-.63-.259.881.881,0,0,1-.593-.832v-.406A1.242,1.242,0,0,0,804.287,796h-.292a1.242,1.242,0,0,0-1.242,1.242v.415a.882.882,0,0,1-.589.832,5.962,5.962,0,0,0-.629.262.881.881,0,0,1-1.008-.17l-.287-.287a1.242,1.242,0,0,0-1.756,0l-.207.207a1.242,1.242,0,0,0,0,1.756l.293.293a.882.882,0,0,1,.171,1,6.008,6.008,0,0,0-.259.631.882.882,0,0,1-.833.593h-.406A1.242,1.242,0,0,0,796,804.021v.292a1.242,1.242,0,0,0,1.242,1.242h.415a.881.881,0,0,1,.832.589,6.07,6.07,0,0,0,.262.63.881.881,0,0,1-.169,1.008l-.287.287a1.242,1.242,0,0,0,0,1.756l.207.207a1.242,1.242,0,0,0,1.756,0l.293-.293a.882.882,0,0,1,1-.171,6.039,6.039,0,0,0,.631.26.881.881,0,0,1,.593.833v.405a1.242,1.242,0,0,0,1.242,1.242h.293a1.241,1.241,0,0,0,1.242-1.242v-.415a.881.881,0,0,1,.589-.831,6.014,6.014,0,0,0,.63-.262.881.881,0,0,1,1.008.169l.286.287a1.242,1.242,0,0,0,1.757,0l.207-.207a1.242,1.242,0,0,0,0-1.756l-.293-.293a.881.881,0,0,1-.172-1,5.934,5.934,0,0,0,.259-.631.881.881,0,0,1,.833-.593h.406a1.241,1.241,0,0,0,1.242-1.242v-.293A1.241,1.241,0,0,0,811.066,802.753Zm-6.912,4.422a3.021,3.021,0,1,1,3.021-3.021A3.021,3.021,0,0,1,804.154,807.175Z" transform="translate(-787.297 -786.859)" fill="#8e72d6"/>
  </g>
</svg>
