<svg xmlns="http://www.w3.org/2000/svg" width="34" height="34" viewBox="0 0 34 34">
  <g id="Icon" transform="translate(0.286 -0.152)">
    <circle id="Oval" cx="17" cy="17" r="17" transform="translate(-0.286 0.152)" fill="#333948"/>
    <g id="check-svgrepo-com_1_" data-name="check-svgrepo-com (1)" transform="translate(9.102 -13.573)">
      <path id="Path_7" data-name="Path 7" d="M15.071,27.318l-2.8-2.8a.519.519,0,0,0-.735,0L5.824,30.226,3.689,28.09a.52.52,0,0,0-.735,0l-2.8,2.8a.519.519,0,0,0,0,.734l5.305,5.307a.519.519,0,0,0,.735,0l8.879-8.883A.519.519,0,0,0,15.071,27.318Z" fill="#8e72d6"/>
    </g>
  </g>
</svg>
