<svg xmlns="http://www.w3.org/2000/svg" width="31" height="31" viewBox="0 0 31 31">
  <g id="Icon" transform="translate(0 -0.438)">
    <g id="Oval" transform="translate(0 0.438)" fill="#00ba9e">
      <path d="M 15.5 30.5 C 11.49335956573486 30.5 7.726530075073242 28.93972969055176 4.893400192260742 26.10659980773926 C 2.060270071029663 23.27346992492676 0.5 19.50663948059082 0.5 15.5 C 0.5 11.49335956573486 2.060270071029663 7.726530075073242 4.893400192260742 4.893400192260742 C 7.726530075073242 2.060270071029663 11.49335956573486 0.5 15.5 0.5 C 19.50663948059082 0.5 23.27346992492676 2.060270071029663 26.10659980773926 4.893400192260742 C 28.93972969055176 7.726530075073242 30.5 11.49335956573486 30.5 15.5 C 30.5 19.50663948059082 28.93972969055176 23.27346992492676 26.10659980773926 26.10659980773926 C 23.27346992492676 28.93972969055176 19.50663948059082 30.5 15.5 30.5 Z" stroke="none"/>
      <path d="M 15.5 1 C 11.62690925598145 1 7.985639572143555 2.508260726928711 5.246950149536133 5.246950149536133 C 2.508260726928711 7.985639572143555 1 11.62690925598145 1 15.5 C 1 19.37308883666992 2.508260726928711 23.01436042785645 5.246950149536133 25.75304985046387 C 7.985639572143555 28.49173927307129 11.62690925598145 30 15.5 30 C 19.37308883666992 30 23.01436042785645 28.49173927307129 25.75304985046387 25.75304985046387 C 28.49173927307129 23.01436042785645 30 19.37308883666992 30 15.5 C 30 11.62690925598145 28.49173927307129 7.985639572143555 25.75304985046387 5.246950149536133 C 23.01436042785645 2.508260726928711 19.37308883666992 1 15.5 1 M 15.5 0 C 24.06040954589844 0 31 6.939590454101562 31 15.5 C 31 24.06040954589844 24.06040954589844 31 15.5 31 C 6.939590454101562 31 0 24.06040954589844 0 15.5 C 0 6.939590454101562 6.939590454101562 0 15.5 0 Z" stroke="none" fill="#333948"/>
    </g>
    <g id="Icon-2" data-name="Icon" transform="translate(11.637 11.094)">
      <path id="path1803-14" d="M0,0,2.251,2.149" transform="translate(0.003 2.149)" fill="none" stroke="#fff" stroke-linecap="round" stroke-linejoin="round" stroke-miterlimit="10" stroke-width="1"/>
      <path id="path1805-8" d="M0,2.149,2.251,0" transform="translate(0.003 0)" fill="none" stroke="#fff" stroke-linecap="round" stroke-linejoin="round" stroke-miterlimit="10" stroke-width="1"/>
      <path id="path1884" d="M0,3.769A3.769,3.769,0,0,0,2.385,7.251a3.933,3.933,0,0,0,4.21-.817,3.7,3.7,0,0,0,.837-4.108A3.831,3.831,0,0,0,3.887,0H0" transform="translate(0 2.149)" fill="none" stroke="#fff" stroke-linecap="round" stroke-miterlimit="10" stroke-width="1"/>
    </g>
  </g>
</svg>
