<svg xmlns="http://www.w3.org/2000/svg" xmlns:xlink="http://www.w3.org/1999/xlink" width="23" height="23" viewBox="0 0 23 23">
  <defs>
    <clipPath id="clip-path">
      <rect id="Rectangle_65" data-name="Rectangle 65" width="23" height="12" transform="translate(1107 308)" fill="#6c80b7"/>
    </clipPath>
    <clipPath id="clip-path-2">
      <rect id="Rectangle_66" data-name="Rectangle 66" width="23" height="12" fill="#6c80b7"/>
    </clipPath>
  </defs>
  <g id="Group_9175" data-name="Group 9175" transform="translate(331 -1107) rotate(90)">
    <g id="Mask_Group_1" data-name="Mask Group 1" clip-path="url(#clip-path)">
      <g id="Path_10" data-name="Path 10" transform="translate(1107 308)" fill="#f2f2f2">
        <path d="M11.5,0A11.5,11.5,0,1,1,0,11.5,11.5,11.5,0,0,1,11.5,0Z" stroke="none"/>
        <path d="M 11.5 4 C 7.364489555358887 4 4 7.364489555358887 4 11.5 C 4 15.6355094909668 7.364489555358887 19 11.5 19 C 15.6355094909668 19 19 15.6355094909668 19 11.5 C 19 7.364489555358887 15.6355094909668 4 11.5 4 M 11.5 0 C 17.85127067565918 0 23 5.14872932434082 23 11.5 C 23 17.85127067565918 17.85127067565918 23 11.5 23 C 5.14872932434082 23 0 17.85127067565918 0 11.5 C 0 5.14872932434082 5.14872932434082 0 11.5 0 Z" stroke="none" fill="rgba(80,233,192,0.7)"/>
      </g>
    </g>
    <g id="Mask_Group_2" data-name="Mask Group 2" transform="translate(1107 319)" clip-path="url(#clip-path-2)">
      <g id="Path_11" data-name="Path 11" transform="translate(0 -11)" fill="#f2f2f2">
        <path d="M 11.5 21 C 6.261680126190186 21 2 16.73831939697266 2 11.5 C 2 6.261680126190186 6.261680126190186 2 11.5 2 C 16.73831939697266 2 21 6.261680126190186 21 11.5 C 21 16.73831939697266 16.73831939697266 21 11.5 21 Z" stroke="none"/>
        <path d="M 11.5 19 C 15.63551044464111 19 19 15.63551044464111 19 11.5 C 19 7.364490032196045 15.63551044464111 4 11.5 4 C 7.364490032196045 4 4 7.364490032196045 4 11.5 C 4 15.63551044464111 7.364490032196045 19 11.5 19 M 11.5 23 C 5.148729801177979 23 -1.77635683940025e-15 17.85127067565918 -1.77635683940025e-15 11.5 C -1.77635683940025e-15 5.148729801177979 5.148729801177979 -1.77635683940025e-15 11.5 -1.77635683940025e-15 C 17.85127067565918 -1.77635683940025e-15 23 5.148729801177979 23 11.5 C 23 17.85127067565918 17.85127067565918 23 11.5 23 Z" stroke="none" fill="#bda3f0"/>
      </g>
    </g>
  </g>
</svg>
