<svg xmlns="http://www.w3.org/2000/svg" width="56" height="56" viewBox="0 0 56 56">
  <g id="ic" transform="translate(-1676 -128)">
    <path id="Rectangle_11" data-name="Rectangle 11" d="M1676,156a28,28,0,0,1,28-28h0a28,28,0,0,1,28,28h0a28,28,0,0,1-28,28h0a28,28,0,0,1-28-28Z" fill="#fff"></path>
    <g id="ph:calendar-plus">
      <path id="Vector" d="M1714,168h-20a2.013,2.013,0,0,1-1.414-.586A1.988,1.988,0,0,1,1692,166V146a1.987,1.987,0,0,1,.586-1.414A2.01,2.01,0,0,1,1694,144h3v-1a1,1,0,0,1,1-1,1.007,1.007,0,0,1,.707.293A.994.994,0,0,1,1699,143v1h10v-1a1,1,0,0,1,2,0v1h3a1.988,1.988,0,0,1,1.415.586A2.017,2.017,0,0,1,1716,146v20a2,2,0,0,1-2,2Zm-20-16v14h20V152Zm0-6v4h20v-4h-3v1a1,1,0,0,1-.293.707,1,1,0,0,1-1.414,0A1.007,1.007,0,0,1,1709,147v-1h-10v1a.991.991,0,0,1-.293.707A1,1,0,0,1,1697,147v-1h-3Zm10,17.5a1,1,0,0,1-1-1V160h-2.5a1,1,0,0,1,0-2h2.5v-2.5a1,1,0,1,1,2,0V158h2.5a1,1,0,0,1,.707,1.706.991.991,0,0,1-.707.293H1705v2.5a1.006,1.006,0,0,1-.292.707A.991.991,0,0,1,1704,163.5Z" fill="#8e72d6"></path>
    </g>
  </g>
</svg>
