<svg id="New_Task_Button" data-name="New Task Button" xmlns="http://www.w3.org/2000/svg" width="152" height="32" viewBox="0 0 152 32">
  <g id="Add_new_service" data-name="Add new service" transform="translate(92.071)">
    <g id="Group_9173" data-name="Group 9173">
      <path id="Shape_BG" data-name="Shape BG" d="M0,0H29a3,3,0,0,1,3,3V29a3,3,0,0,1-3,3H0a0,0,0,0,1,0,0V0A0,0,0,0,1,0,0Z" transform="translate(27.929)" fill="#8e72d6"></path>
      <path id="icon" d="M5.313,9.313v-4h4V4h-4V0H4V4H0V5.313H4v4Z" transform="translate(39.272 11.344)" fill="#fff"></path>
    </g>
    <g id="Group_124" data-name="Group 124" transform="translate(12)">
      <path id="Shape_BG-2" data-name="Shape BG" d="M3,0H121a0,0,0,0,1,0,0V32a0,0,0,0,1,0,0H3a3,3,0,0,1-3-3V3A3,3,0,0,1,3,0Z" transform="translate(-104.071)" fill="#333948"></path>
      <text id="Jan_-_Feb_2020" data-name="Jan - Feb 2020" transform="translate(-90.071 20)" fill="#e6e6e6" font-size="11" font-family="Nunito-SemiBold, Nunito" font-weight="600"><tspan x="0" y="0">Create a New Task</tspan></text>
    </g>
  </g>
</svg>
